<svg width="28" height="28" viewBox="0 0 28 28" fill="none" xmlns="http://www.w3.org/2000/svg">
<path d="M0 14C0 15.7125 0.308055 17.3529 0.870789 18.8696L14 20.087L27.1292 18.8696C27.6919 17.3529 28 15.7125 28 14C28 12.2875 27.6919 10.6471 27.1292 9.13048L14 7.91309L0.870789 9.13048C0.308055 10.6471 0 12.2875 0 14Z" fill="#FFDA44"/>
<path d="M27.1292 9.13046C25.1511 3.7993 20.0195 0 14 0C7.98049 0 2.84889 3.7993 0.870789 9.13046H27.1292Z" fill="#D80027"/>
<path d="M0.870789 18.8695C2.84889 24.2007 7.98049 28 14 28C20.0195 28 25.1511 24.2007 27.1292 18.8695H0.870789Z" fill="#D80027"/>
<g style="mix-blend-mode:color">
<path d="M0 14C0 6.26801 6.26801 0 14 0C21.732 0 28 6.26801 28 14C28 21.732 21.732 28 14 28C6.26801 28 0 21.732 0 14Z" fill="white"/>
</g>
</svg>
