<svg width="18" height="14" viewBox="0 0 18 14" fill="none" xmlns="http://www.w3.org/2000/svg">
<path d="M6.32812 14C6.53906 14 6.75 13.8242 6.75 13.5781V12.1719C6.75 11.9609 6.53906 11.75 6.32812 11.75H3.375C2.74219 11.75 2.25 11.2578 2.25 10.625V3.875C2.25 3.27734 2.74219 2.75 3.375 2.75H6.32812C6.53906 2.75 6.75 2.57422 6.75 2.32812V0.921875C6.75 0.710938 6.53906 0.5 6.32812 0.5H3.375C1.51172 0.5 0 2.01172 0 3.875V10.625C0 12.4883 1.51172 14 3.375 14H6.32812ZM10.4414 3.34766L13.1836 5.84375H6.46875C5.97656 5.84375 5.625 6.23047 5.625 6.6875V7.8125C5.625 8.30469 5.97656 8.65625 6.46875 8.65625H13.1836L10.4414 11.1875C10.0898 11.5039 10.0898 12.0664 10.4414 12.3828L11.2148 13.1562C11.5312 13.4727 12.0586 13.5078 12.375 13.1562L17.7188 7.84766C18.0703 7.53125 18.0703 7.00391 17.7188 6.65234L12.4102 1.37891C12.0586 1.02734 11.5312 1.02734 11.2148 1.37891L10.4414 2.15234C10.0898 2.46875 10.0898 3.03125 10.4414 3.34766Z" fill="#009CDD"/>
</svg>
